<?xml version="1.0" standalone="no"?>
<!DOCTYPE svg PUBLIC "-//W3C//DTD SVG 1.1//EN" "http://www.w3.org/Graphics/SVG/1.1/DTD/svg11.dtd" >
<svg xmlns="http://www.w3.org/2000/svg">
<metadata>
Created by FontForge 20120731 at Wed Jun 15 10:14:12 2016
 By admin
</metadata>
<defs>
<font id="iconfont" horiz-adv-x="1024" >
  <font-face 
    font-family="iconfont"
    font-weight="500"
    font-stretch="normal"
    units-per-em="1024"
    panose-1="2 0 6 3 0 0 0 0 0 0"
    ascent="896"
    descent="-128"
    x-height="792"
    bbox="0 -128 1024 896"
    underline-thickness="50"
    underline-position="-100"
    unicode-range="U+0078-E656"
  />
<missing-glyph horiz-adv-x="374" 
d="M34 0v682h272v-682h-272zM68 34h204v614h-204v-614z" />
    <glyph glyph-name=".notdef" horiz-adv-x="374" 
d="M34 0v682h272v-682h-272zM68 34h204v614h-204v-614z" />
    <glyph glyph-name=".null" horiz-adv-x="0" 
 />
    <glyph glyph-name="nonmarkingreturn" horiz-adv-x="341" 
 />
    <glyph glyph-name="x" unicode="x" horiz-adv-x="1001" 
d="M281 543q-27 -1 -53 -1h-83q-18 0 -36.5 -6t-32.5 -18.5t-23 -32t-9 -45.5v-76h912v41q0 16 -0.5 30t-0.5 18q0 13 -5 29t-17 29.5t-31.5 22.5t-49.5 9h-133v-97h-438v97zM955 310v-52q0 -23 0.5 -52t0.5 -58t-10.5 -47.5t-26 -30t-33 -16t-31.5 -4.5q-14 -1 -29.5 -0.5
t-29.5 0.5h-32l-45 128h-439l-44 -128h-29h-34q-20 0 -45 1q-25 0 -41 9.5t-25.5 23t-13.5 29.5t-4 30v167h911zM163 247q-12 0 -21 -8.5t-9 -21.5t9 -21.5t21 -8.5q13 0 22 8.5t9 21.5t-9 21.5t-22 8.5zM316 123q-8 -26 -14 -48q-5 -19 -10.5 -37t-7.5 -25t-3 -15t1 -14.5
t9.5 -10.5t21.5 -4h37h67h81h80h64h36q23 0 34 12t2 38q-5 13 -9.5 30.5t-9.5 34.5q-5 19 -11 39h-368zM336 498v228q0 11 2.5 23t10 21.5t20.5 15.5t34 6h188q31 0 51.5 -14.5t20.5 -52.5v-227h-327z" />
    <glyph glyph-name="uniE600" unicode="&#xe600;" 
d="M512 -128q-139 0 -257 68.5t-186.5 186.5t-68.5 257t68.5 257t186.5 186.5t257 68.5t257 -68.5t186.5 -186.5t68.5 -257t-68.5 -257t-186.5 -186.5t-257 -68.5zM512 823q-89 0 -170.5 -35t-140 -93.5t-93.5 -140t-35 -170.5t35 -170.5t93.5 -140t140 -93.5t170.5 -35
t170.5 35t140 93.5t93.5 140t35 170.5t-35 170.5t-93.5 140t-140 93.5t-170.5 35zM707 340l-265 -168q-3 -1 -6 -3l-6 -2h-1q-1 -1 -2 -1h-1q-1 -1 -3 -1h-1h-2h-1h-1h-2q-21 0 -35.5 14.5t-14.5 35.5v0v338q0 21 14.5 35.5t35.5 14.5q15 0 28 -8l262 -167q25 -15 25 -44
t-24 -44z" />
    <glyph glyph-name="uniE601" unicode="&#xe601;" 
d="M565 375v-5q0 -11 -8 -19t-19 -8h-198q-11 0 -19 8t-8 19t8 19t19 8h171v252q0 11 8 19t19 8t19 -8t8 -19v-270v-4zM922 473q-20 154 -137 257t-274 103t-273.5 -103t-136.5 -257h-4q-15 0 -25.5 -10.5t-10.5 -25.5v-143q0 -15 10.5 -25.5t25.5 -10.5h36v180h1
q4 98 55.5 181t136.5 130.5t185 47.5t185 -47.5t136.5 -130.5t55.5 -181h1v-180h36q15 0 25.5 10.5t10.5 25.5v143q0 15 -10.5 25.5t-25.5 10.5h-3zM97 294q26 -116 109.5 -200t198.5 -112q10 -21 33 -21h144q15 0 25.5 10.5t10.5 25.5t-10.5 25.5t-25.5 10.5h-144
q-18 0 -29 -15q-101 26 -175.5 100t-99.5 176h-37z" />
    <glyph glyph-name="uniE602" unicode="&#xe602;" 
d="M922 473q-20 154 -137 257t-274 103t-273.5 -103t-136.5 -257h-4q-15 0 -25.5 -10.5t-10.5 -25.5v-143q0 -15 10.5 -25.5t25.5 -10.5h36v180h1q4 98 55.5 181t136.5 130.5t185 47.5t185 -47.5t136.5 -130.5t55.5 -181h1v-180h36q15 0 25.5 10.5t10.5 25.5v143
q0 15 -10.5 25.5t-25.5 10.5h-3zM97 294q26 -116 109.5 -200t198.5 -112q10 -21 33 -21h144q15 0 25.5 10.5t10.5 25.5t-10.5 25.5t-25.5 10.5h-144q-18 0 -29 -15q-101 26 -175 100t-100 176h-37zM562 386v-5q0 -10 -7.5 -17.5t-18.5 -7.5h-186q-11 0 -18.5 7.5t-7.5 18
t7.5 18t18.5 7.5h161v238q0 10 7.5 17.5t18 7.5t18 -7.5t7.5 -17.5v-255v-4zM511 59q97 0 179 47.5t130 129.5t48 179t-48 179.5t-130 130t-179 47.5t-179 -47.5t-130 -130t-48 -179.5t48 -179t130 -129.5t179 -47.5z" />
    <glyph glyph-name="uniE603" unicode="&#xe603;" 
d="M322.5 824q-107.5 0 -184 -41t-76.5 -99v-560q0 -57 76.5 -98t183.5 -41q86 0 155 27q-19 26 -31 56q-55 -23 -124 -23q-78 0 -135 28.5t-64 70.5h-1v61q87 -42 201 -42q64 0 119 13v3v58q-54 -11 -119 -11q-120 0 -201 37v121q87 -42 201 -42q29 0 56.5 3t49 7.5
t41.5 11t35 13t28 13.5t22 13t15 10.5t9 7.5l3 3v43v217q0 58 -76 99t-183.5 41zM522 443q-79 -37 -199 -37t-201 37v121q87 -42 201 -42t199 42v-121zM522 623q-79 -37 -199 -37t-201 37v41h1q7 42 64 71t135 29t135 -29t64 -71h1v-41zM721.5 424q-99.5 0 -169.5 -70
t-70 -169.5t70.5 -169.5t169.5 -70t169.5 70t70.5 169.5t-70.5 169.5t-170 70zM721.5 5q-74.5 0 -127 52.5t-52.5 127t52.5 127t127 52.5t127.5 -52.5t53 -127t-53 -127t-127.5 -52.5z" />
    <glyph glyph-name="uniE604" unicode="&#xe604;" 
d="M720.5 -57q99.5 0 170 70.5t70.5 169.5t-70.5 169.5t-170 70.5t-169.5 -70.5t-70 -169.5t70 -169.5t169.5 -70.5zM322 121q-154 0 -247 70l-14 11v-79q0 -58 76.5 -99t183.5 -41q86 0 155 27q-39 55 -50 121q-49 -10 -104 -10zM322 184q53 0 99 8q3 81 45 149
q-66 -20 -144 -20q-29 0 -56.5 2.5t-49 7.5t-42 11t-35.5 13t-28 13.5t-22 12.5t-15.5 11t-9.5 8l-3 2v-139q0 -4 23 -20q83 -59 238 -59zM322 522q-3 2 -17 0.5t-44.5 3t-62 11t-69.5 24.5t-68 43v-2v-139q3 -4 8.5 -9t27 -18.5t48.5 -24t74.5 -19t103 -8.5t102.5 8.5
t73.5 19t48 24t26.5 18.5t8 9v136l-5 -4q-6 -4 -17 -11t-26.5 -15t-38 -16.5t-47.5 -15t-58 -11t-67 -4.5zM321.5 822q-107.5 0 -184 -41t-76.5 -99v-18l9 -8q5 -6 26.5 -19.5t48.5 -23.5t74.5 -18.5t102.5 -8.5q3 1 18 -0.5t46.5 3t63.5 11t68.5 23.5t62.5 41v18
q0 58 -76 99t-183.5 41z" />
    <glyph glyph-name="uniE605" unicode="&#xe605;" 
d="M944 798h-864q-7 0 -12.5 -5.5t-5.5 -12.5v-576q0 -7 5.5 -12.5t12.5 -5.5h414v-162h-207q-11 0 -19 -7.5t-8 -19t8 -19.5t19 -8h450q11 0 19 8t8 19.5t-8 19t-19 7.5h-207v162h414q7 0 12.5 5.5t5.5 12.5v576q0 7 -5.5 12.5t-12.5 5.5zM908 258q0 -7 -5.5 -12.5
t-12.5 -5.5h-756q-7 0 -12.5 5.5t-5.5 12.5v36h792v-36zM908 348h-792v378q0 7 5.5 12.5t12.5 5.5h756q7 0 12.5 -5.5t5.5 -12.5v-378z" />
    <glyph glyph-name="uniE606" unicode="&#xe606;" 
d="M527 186h413q8 0 13 5.5t5 12.5v576q0 7 -5 12.5t-13 5.5h-863q-7 0 -12.5 -5.5t-5.5 -12.5v-576q0 -7 5.5 -12.5t12.5 -5.5h414v-162h-207q-11 0 -19 -7.5t-8 -19t8 -19.5t19 -8h449q12 0 20 8t8 19.5t-8 19t-20 7.5h-206v162zM113 303q0 11 8 19t19 8h737q12 0 19.5 -8
t7.5 -19t-7.5 -19t-19.5 -8h-737q-11 0 -19 8t-8 19z" />
    <glyph glyph-name="uniE607" unicode="&#xe607;" 
d="M511 834q-127 0 -216.5 -89.5t-89.5 -216.5q0 -82 40.5 -151.5t107.5 -110.5l122 -296q0 -15 10.5 -25.5t25.5 -10.5t25.5 10.5t10.5 25.5l122 296q67 41 107.5 110.5t40.5 151.5q0 127 -89.5 216.5t-216.5 89.5zM511 384q-60 0 -102 42t-42 101.5t42 102t102 42.5
t102 -42.5t42 -102t-42 -101.5t-102 -42z" />
    <glyph glyph-name="uniE608" unicode="&#xe608;" 
d="M492 834h-348q-34 0 -58 -24t-24 -58v-736q0 -34 24 -58t58 -24h736q34 0 58 24t24 58v346v2q0 12 -9 21t-22 9t-22 -9t-9 -21v-327q0 -17 -12 -29t-29 -12h-694q-17 0 -29 12t-12 29v694q0 17 12 29t29 12h327q12 0 21 9t9 22t-9 22t-21 9zM962 803v3q0 10 -8 18l-1 1
l-1 1q-8 8 -18 8h-190q-12 0 -20 -9t-8 -22t8 -22t20 -9h113l-301 -301q-9 -9 -9 -21.5t9 -21.5t21.5 -9t21.5 9l301 301v-113q0 -12 9 -20t22 -8t22 8t9 20v187z" />
    <glyph glyph-name="uniE609" unicode="&#xe609;" 
d="M60 -67q6 154 103.5 271t244.5 151q-67 29 -107.5 91t-40.5 137q0 60 27 114q-10 16 -10 36q0 27 19.5 46.5t46.5 19.5q16 0 30 -7q63 41 137 41q103 0 176.5 -73.5t73.5 -176.5q0 -75 -41 -137t-107 -91q147 -34 244.5 -151t103.5 -271h-900z" />
    <glyph glyph-name="uniE60A" unicode="&#xe60a;" 
d="M383 684q-103 -39 -167.5 -130.5t-64.5 -205.5q0 -98 48.5 -180.5t131 -131t180.5 -48.5t180.5 48.5t131 131t48.5 180.5q0 114 -64.5 205.5t-167.5 130.5h-2q-12 0 -20.5 8.5t-8.5 20.5t8.5 20.5t20.5 8.5h1q9 0 16 -6q120 -44 195.5 -150t75.5 -238
q0 -112 -55.5 -207.5t-151 -151t-207.5 -55.5t-207.5 55.5t-151 151t-55.5 207.5q0 132 75.5 238t195.5 150q7 6 16 6h1q12 0 20.5 -8.5t8.5 -20.5t-8.5 -20.5t-20.5 -8.5h-2zM475 798q0 15 10.5 25.5t25.5 10.5t25.5 -10.5t10.5 -25.5v-360q0 -15 -10.5 -25.5t-25.5 -10.5
t-25.5 10.5t-10.5 25.5v360z" />
    <glyph glyph-name="uniE60B" unicode="&#xe60b;" 
d="M692 834q-103 0 -180 -69q-77 69 -180 69q-112 0 -191 -79t-79 -191q0 -102 68 -179l356 -441q7 -10 19 -10t19 11l368 438q7 7 13 15q57 73 57 166q0 112 -79 191t-191 79zM866 422q-5 -5 -9 -11l-352 -420l-347 431q-47 61 -47 139q0 93 65.5 158.5t158.5 65.5
q53 0 99.5 -22.5t77.5 -62.5q31 40 77.5 62.5t99.5 22.5q93 0 158.5 -65.5t65.5 -158.5q0 -78 -47 -139z" />
    <glyph glyph-name="uniE60C" unicode="&#xe60c;" 
d="M484 -56l-356 441q-68 77 -68 179q0 112 79 191t191 79q103 0 180 -69q77 69 180 69q112 0 191 -79t79 -191q0 -93 -57 -166q-7 -8 -13 -15l-368 -438q-7 -11 -20 -11q-11 0 -18 10z" />
    <glyph glyph-name="uniE60D" unicode="&#xe60d;" 
d="M817 834h-612q-14 0 -25 -10.5t-11 -25.5v-828q0 -15 11 -25.5t25 -10.5h612q15 0 25.5 10.5t10.5 25.5v828q0 15 -10.5 25.5t-25.5 10.5zM799 6q0 -7 -5.5 -12.5t-12.5 -5.5h-540q-7 0 -12.5 5.5t-5.5 12.5v756q0 7 5.5 12.5t12.5 5.5h540q7 0 12.5 -5.5t5.5 -12.5v-756
zM511 286l-93 154q-6 9 -15 9q-6 0 -12 -3q-11 -6 -11 -17q0 -5 3 -9l74 -114h-60q-15 0 -15 -14.5t15 -14.5h78l16 -26v-20h-95q-14 0 -14 -14q0 -15 14 -15h95v-77q0 -17 19.5 -17t19.5 17v77h95q14 0 14 15q0 14 -14 14h-95v20l16 26h79q15 0 15 15q0 14 -15 14h-60
l73 114q3 5 3 10q0 9 -11 16q-6 4 -12 4q-10 0 -15 -10zM739 671q-1 11 -9.5 18t-19.5 7q-1 0 -4 -1l-3 -1q-77 -33 -160 -39q-113 -8 -219 36l-2 1l-1 -1v1l-5 1l-4 2q-3 1 -7 1l-3 -1q-11 0 -17 -8.5t-6 -20.5q1 -9 8 -17q1 0 1 -1h1l14 -7q118 -49 244 -40q92 7 175 43
q18 7 17 27z" />
    <glyph glyph-name="uniE60E" unicode="&#xe60e;" 
d="M169 798q0 15 11 25.5t25 10.5h612q15 0 25.5 -10.5t10.5 -25.5v-828q0 -15 -10.5 -25.5t-25.5 -10.5h-612q-14 0 -25 10.5t-11 25.5v828zM511 286l-93 154q-6 9 -15 9q-6 0 -12 -3q-11 -6 -11 -17q0 -5 3 -9l74 -114h-60q-15 0 -15 -14.5t15 -14.5h78l16 -26v-20h-95
q-14 0 -14 -14q0 -15 14 -15h95v-77q0 -17 19.5 -17t19.5 17v77h95q14 0 14 15q0 14 -14 14h-95v20l16 26h79q15 0 15 15q0 14 -15 14h-60l73 114q3 5 3 10q0 9 -11 16q-6 4 -12 4q-10 0 -15 -10zM739 671q-1 11 -9.5 18t-19.5 7q-1 0 -4 -1l-3 -1q-77 -33 -160 -39
q-113 -8 -219 36l-2 1l-1 -1v1l-5 1l-4 2q-3 1 -7 1l-3 -1q-11 0 -17 -8.5t-6 -20.5q1 -9 8 -17q1 0 1 -1h1l14 -7q118 -49 244 -40q92 7 175 43q18 7 17 27z" />
    <glyph glyph-name="uniE60F" unicode="&#xe60f;" 
d="M616 834h-211h-164q-14 0 -25 -11t-11 -25v-144q0 -15 9 -31.5t21 -25.5l162 -117q8 -6 16 -6h6h180q4 0 8 1q8 -2 19 5l162 117q12 9 20.5 25.5t8.5 31.5v144q0 14 -10.5 25t-25.5 11h-165zM565 771q0 11 8 19t19 8t19 -8t8 -19v-234q0 -11 -8 -19t-19 -8t-19 8t-8 19
v234zM403 771q0 11 8 19t19 8t19 -8t8 -19v-234q0 -11 -8 -19t-19 -8t-19 8t-8 19v234zM511 -66q104 0 178 74t74 178t-74 178t-178 74t-178 -74t-74 -178t74 -178t178 -74z" />
    <glyph glyph-name="uniE610" unicode="&#xe610;" 
d="M512 162l-232 277q-7 8 -17.5 8.5t-18 -6t-8.5 -16.5t6 -18l249 -298q9 -9 21 -9t20 9l250 298q7 8 6 18t-9 16.5t-18 6t-17 -8.5zM953 513q-1 0 -1 1h-1v1l-24 25l-214 254q-4 6 -11 6q-6 4 -13 4h-355q-11 0 -18 -8q-7 -2 -12 -8l-205 -244l-29 -31l1 -1
q-8 -6 -8.5 -16t5.5 -18l423 -504q8 -10 21 -9q12 -1 20 9l424 504q6 8 5.5 18.5t-8.5 16.5zM512 26l-391 467l219 261h342l220 -262z" />
    <glyph glyph-name="uniE611" unicode="&#xe611;" 
d="M958 489q9 10 0 21l-240 285l-4 4q-5 9 -16 9h-372q-10 0 -15 -8q-3 -2 -5 -5l-240 -285q-4 -5 -4 -13q0 -7 4 -12l435 -519q5 -5 12 -5.5t12 3.5t6 10l1 1l422 503q4 5 4 11zM521 169l233 278q7 8 17.5 8.5t18.5 -6t9 -17t-6 -18.5l-251 -299q-8 -10 -21 -9
q-13 -1 -21 9l-251 299q-7 8 -6 18.5t9 17t18.5 6t17.5 -8.5z" />
    <glyph glyph-name="uniE612" unicode="&#xe612;" 
d="M510 629q-28 0 -48 -19.5t-20 -48t20 -48t48 -19.5t48 19.5t20 48t-20 48t-48 19.5zM510 528q-14 0 -24 10t-10 24t10 24t24 10t24 -10t10 -24t-10 -24t-24 -10zM524 36q8 -7 8 -17q0 -4 -1 -7h1l-21 -44l-20 39q-3 5 -3 12q0 10 8 17h-34q-3 -9 -3 -17q0 -19 13 -33
l22 -38q2 -14 16 -14t17 13l25 42q9 14 9 30q0 8 -3 17h-34zM714 249l-66 13q32 96 32 181q0 69 -15.5 136t-38.5 113.5t-38.5 71.5t-25.5 36q-3 3 -6 5.5t-6.5 5t-7.5 5.5t-8 5t-7.5 4t-6.5 3l-5 3q-2 1 -3 1l-2 1q-37 -16 -51 -33q-11 -14 -25.5 -37t-38 -70.5t-39 -114
t-15.5 -135.5q0 -86 32 -182l-59 -12q-13 -3 -20 -14.5t-3 -25.5l55 -179q4 -16 20 -25l8 100q1 14 11.5 26t24.5 15l10 2q13 -26 27 -50t21 -35l8 -10h34h35q27 37 56 96l17 -3q14 -3 24.5 -15t11.5 -26l8 -100q16 9 20 25l55 179q4 14 -3 25.5t-20 14.5zM470 737
q5 10 15 20.5t18 16.5l7 6v-6v6q31 -23 43 -45q1 -2 6 -9.5t7 -11.5h-111q3 5 8 13t7 10zM688 166q-7 -38 -8 -38t-5.5 10.5t-15 23.5t-24.5 18q-4 2 -16 6q-34 12 -43 15q-12 -27 -26.5 -51t-21.5 -35l-8 -11h-10h-9q-28 35 -55 94q-4 -1 -9.5 -3t-13.5 -5t-13 -5l-8 -3
q-4 -1 -6 -2q-15 -5 -25.5 -18t-15.5 -23.5t-6 -10.5t-2 5.5t-3 15.5t-3 17q-8 32 -2 38q5 6 48 18q21 6 44 12q-39 101 -39 207q0 145 45 239h148q44 -93 44 -239q0 -104 -38 -205q21 -5 42 -11q53 -15 59 -21q3 -4 -4 -38z" />
    <glyph glyph-name="uniE613" unicode="&#xe613;" 
d="M508 53h35q5 8 14.5 22t32.5 57t41 87t32.5 106t14.5 118q0 70 -15.5 137t-38 112.5t-38.5 71.5t-26 37q-6 5 -19 13.5t-23 13.5l-10 6q-38 -15 -51 -33q-10 -13 -18.5 -25.5t-28.5 -50t-34 -75t-25.5 -94t-11.5 -113.5q0 -56 13.5 -117t33.5 -107.5t40 -85.5t34 -59
l14 -21h34zM457 732h51h51q7 0 12 -5t5 -12t-5 -12t-12 -5h-51h-51q-7 0 -12 5t-5 12t5 12t12 5zM440 562q0 28 20 48t48 20t48 -20t20 -48t-20 -48t-48 -20t-48 20t-20 48zM460 36q-3 -8 -3 -17q0 -19 13 -33l21 -37q3 -15 17 -15t17 14l25 42q9 13 9 29q0 9 -3 17h-96z
M312 249q-13 -2 -20 -14t-3 -25l55 -180q4 -16 20 -24l8 100q2 24 25 36q-30 57 -49 115zM712 249l-36 8q-19 -57 -49 -115q23 -12 25 -36l8 -100q16 8 20 24l55 180q4 13 -3 25t-20 14z" />
    <glyph glyph-name="uniE614" unicode="&#xe614;" 
d="M836 160v46q0 6 -4.5 11t-11 5t-11 -4.5t-4.5 -11.5v-46h-47q-6 0 -10.5 -5t-4.5 -11t4.5 -10.5t10.5 -4.5h47v-47q0 -6 4.5 -10.5t11 -4.5t11 4.5t4.5 10.5v47h46q7 0 11.5 4.5t4.5 11t-4.5 11t-11.5 4.5h-46zM820 284q-58 0 -98.5 -41t-40.5 -99t40.5 -98.5t98.5 -40.5
t99 40.5t41 98.5t-41 99t-99 41zM820.5 51q-38.5 0 -66 27.5t-27.5 66t27.5 65.5t66 27t65.5 -27t27 -65.5t-27 -66t-65.5 -27.5zM872 307h-1q-71 70 -169 70h-15q-9 0 -16 7.5t-7 16.5t6.5 16t16.5 7h8q47 0 80.5 34t33.5 82t-33.5 82t-80.5 34q-18 0 -36 -6q-2 -1 -12 -5
q-12 -4 -19 2.5t-9 17.5q-3 21 21 28q27 9 55 9q66 0 112.5 -47.5t46.5 -114.5q0 -78 -59 -127q64 -22 112 -71q9 -7 9 -20q0 -10 -7 -17t-17 -7q-13 0 -20 9zM657 265q-70 84 -176 107q-1 -1 -2 -1q-12 0 -20 8t-8 19t8 19t19 8q42 18 68 56.5t26 85.5q0 64 -45 109.5
t-110 45.5q-51 0 -92 -30q-7 4 -16 4q-13 0 -22 -9t-9 -21q0 -11 6 -19q-22 -37 -22 -80q0 -47 26.5 -85.5t69.5 -56.5q9 -3 14.5 -10t5.5 -17t-7.5 -18t-17.5 -9q-103 -21 -172.5 -102.5t-73.5 -188.5q1 -3 1 -6q0 -9 -7 -16t-16 -7t-15.5 5.5t-7.5 13.5h-1
q0 116 67.5 208.5t174.5 128.5q-38 27 -60.5 69.5t-22.5 90.5t21 90q-8 13 -8 29q0 21 15.5 36.5t37.5 15.5q12 0 23 -6q50 32 108 32q82 0 140 -57.5t58 -139.5q0 -48 -22.5 -90.5t-60.5 -69.5q98 -33 164 -115q6 -7 6 -17t-7 -17t-17 -7q-15 0 -21 14z" />
    <glyph glyph-name="uniE615" unicode="&#xe615;" 
d="M683 265q-76 101 -198 129q51 23 82.5 70t31.5 105q0 79 -56.5 135t-135.5 56q-57 0 -105 -31q-10 6 -23 6q-21 0 -36 -15t-15 -36q0 -16 8 -28q-21 -41 -21 -87q0 -58 31.5 -105t82.5 -70q-113 -26 -187.5 -116t-79.5 -207h588q-18 35 -18 75q0 70 51 119zM874 326
q-49 47 -114 67q35 21 55 56.5t20 77.5q0 66 -46.5 112t-111.5 46q-34 0 -66 -14q27 -49 27 -106q0 -88 -60 -153q-2 -1 -3 -3l-2 -2h1q-2 -3 -2 -7q0 -13 13 -14q71 -39 120 -103q42 28 92 28q31 0 60 -12q2 -1 10 -7q18 -11 20 -11q6 0 10.5 4t4.5 11q0 4 -9 13.5
t-19 16.5zM961 136q1 -2 1 -5h-1v5zM797 281q-56 0 -95.5 -39.5t-39.5 -95.5t39.5 -95.5t95.5 -39.5t95.5 39.5t39.5 95.5t-39.5 95.5t-95.5 39.5zM872 131h-60v-60q0 -6 -4.5 -10.5t-10.5 -4.5t-10.5 4.5t-4.5 10.5v60h-60q-6 0 -10.5 4t-4.5 10.5t4.5 11t10.5 4.5h60v60
q0 6 4.5 10.5t10.5 4.5t10.5 -4.5t4.5 -10.5v-60h60q6 0 10.5 -4.5t4.5 -11t-4.5 -10.5t-10.5 -4z" />
    <glyph glyph-name="uniE616" unicode="&#xe616;" 
d="M641 627q16 6 34 6q45 0 77.5 -33t32.5 -79.5t-32.5 -79.5t-77.5 -33h-8q-9 0 -15.5 -6.5t-6.5 -15t6.5 -16t15.5 -7.5h15q97 0 166 -70t69 -169v-6v-2q0 -9 6 -15.5t15.5 -6.5t16.5 6.5t7 15.5q0 2 -1 4v8q0 93 -53 167t-137 103q58 47 58 123q0 65 -45 111t-109 46
q-27 0 -52 -10q-24 -6 -21 -26q1 -11 8 -17.5t19 -2.5q9 4 12 5zM345 356q-100 -21 -166.5 -100t-70.5 -184v-5q0 -9 -6.5 -16t-15.5 -7q-8 0 -14.5 5.5t-7.5 13.5h-2q0 112 65.5 202t169.5 125q-38 27 -59.5 68t-21.5 88t21 87q-8 13 -8 28q0 21 15 36t36 15q12 0 23 -5
q47 31 104 31q79 0 135 -56t56 -136q0 -47 -21.5 -88t-59.5 -68q104 -35 169.5 -125t65.5 -202v-8h-1q0 -9 -6.5 -15t-15.5 -6t-15.5 6.5t-7.5 15.5v5q0 108 -67.5 190.5t-169.5 104.5h-3q-11 0 -18.5 7.5t-7.5 18.5t7.5 18.5t18.5 7.5q40 18 65.5 55t25.5 83q0 62 -44 106
t-106 44q-49 0 -89 -29q-7 5 -16 5q-12 0 -21 -9t-9 -21q0 -11 7 -19q-22 -35 -22 -77q0 -46 25.5 -83.5t66.5 -54.5v-1q9 -2 14.5 -9t5.5 -16q0 -10 -7 -18t-17 -8z" />
    <glyph glyph-name="uniE617" unicode="&#xe617;" 
d="M61 44q5 118 79.5 207.5t187.5 115.5q-51 23 -82.5 70.5t-31.5 104.5q0 47 21 88q-8 12 -8 27q0 21 15 36t36 15q13 0 23 -5q48 31 105 31q79 0 135.5 -56t56.5 -136q0 -57 -31.5 -104.5t-82.5 -70.5q113 -26 187.5 -115.5t79.5 -207.5h-690zM579 362q7 2 13 4
q-10 7 -20 15q65 66 65 158q0 56 -27 106q31 14 66 14q65 0 111.5 -46.5t46.5 -111.5q0 -42 -20 -77.5t-55 -57.5q86 -26 142 -98t60 -164h-188q-17 84 -68 151.5t-126 106.5zM586 389q6 0 10.5 -4.5t4.5 -10.5t-4.5 -10.5t-10.5 -4.5t-10.5 4.5t-4.5 10.5t4.5 10.5
t10.5 4.5z" />
    <glyph glyph-name="uniE618" unicode="&#xe618;" 
d="M533 349q13 8 13 23v270q0 11 -8 19t-19 8t-19 -8t-8 -19v-252h-180q-11 0 -19 -7.5t-8 -19t8 -19.5t19 -8h198q15 0 23 13zM509.5 831q-91.5 0 -174.5 -35.5t-143 -96t-96 -143.5t-36 -174.5t36 -175t96 -143.5t143 -95.5t174.5 -35.5t175 35.5t143.5 95.5t96 143.5
t36 175t-36 174.5t-96 143.5t-143.5 96t-175 35.5zM509.5 -14q-107.5 0 -198.5 53t-144 144t-53 198.5t53 198.5t144 144t198.5 53t199 -53t144.5 -144t53 -198.5t-53 -198.5t-144.5 -144t-199 -53z" />
    <glyph glyph-name="uniE619" unicode="&#xe619;" 
d="M533 352q-8 -13 -23 -13h-198q-11 0 -19 8t-8 19t8 19t19 8h180v252q0 11 8 19t19 8t19 -8t8 -19v-270q0 -15 -13 -23zM509.5 -66q91.5 0 175 36t143.5 96t96 143.5t36 174.5t-36 174.5t-96 143.5t-143.5 96t-175 36t-174.5 -36t-143 -96t-96 -143.5t-36 -174.5
t36 -174.5t96 -143.5t143 -96t174.5 -36z" />
    <glyph glyph-name="uniE61A" unicode="&#xe61a;" 
d="M496 -17v176v1q-101 6 -171 80t-70 176v6v2q0 10 7 17t17 7t17 -7t7 -17v-2v-8q0 -87 61.5 -148t147.5 -61t147.5 61.5t61.5 147.5v8v2q0 10 7 17t17 7t17 -7t7 -17v-2v-6q0 -102 -70 -176t-171 -80v-1v-176h88q10 0 17 -7t7 -17.5t-7 -17.5t-17 -7h-208q-10 0 -17 7
t-7 17t7 17.5t17 7.5h88zM511.5 834q-66.5 0 -113.5 -47t-47 -114v-257q0 -66 47.5 -113t114 -47t113.5 47t47 113v257q0 66 -47.5 113.5t-114 47.5zM624 416q0 -46 -33 -79t-79.5 -33t-79 32.5t-32.5 79.5v257q0 47 33 79.5t79.5 32.5t79 -32.5t32.5 -79.5v-257z" />
    <glyph glyph-name="uniE61B" unicode="&#xe61b;" 
d="M496 -17v176v1q-101 6 -171 80t-70 176v6v2q0 10 7 17t17 7t17 -7t7 -17v-2v-8q0 -87 61.5 -148t147.5 -61t147.5 61.5t61.5 147.5v8v2q0 10 7 17t17 7t17 -7t7 -17v-2v-6q0 -102 -70 -176t-171 -80v-1v-176h88q10 0 17 -7t7 -17.5t-7 -17.5t-17 -7h-208q-10 0 -17 7
t-7 17t7 17.5t17 7.5h88zM351 673q0 67 47 114t113.5 47t114 -47.5t47.5 -113.5v-257q0 -66 -47 -113t-113.5 -47t-114 47t-47.5 113v257z" />
    <glyph glyph-name="uniE61C" unicode="&#xe61c;" 
d="M552.5 834q-110.5 0 -204 -53.5t-148 -145.5t-54.5 -200q0 -152 103 -266q-2 -1 -3 -2l-64 -65l-64 64q-9 10 -23 10t-23.5 -10t-9.5 -23.5t9 -23.5l64 -64l-63 -62q-10 -10 -10 -24t10 -23.5t23.5 -9.5t23.5 10l63 63l64 -65q10 -9 23.5 -9t23.5 9.5t9.5 23.5t-9.5 23
l-64 64l64 65q2 2 4 5q112 -89 256 -89q110 0 204 53t148 145t54 200.5t-54 200.5t-148 145.5t-204.5 53.5zM552.5 104q-91.5 0 -169 44.5t-122.5 120.5t-45 165.5t45 166t122.5 120.5t169 44t169 -44t122.5 -120.5t45 -166t-45 -165.5t-122.5 -120.5t-169 -44.5z" />
    <glyph glyph-name="uniE61D" unicode="&#xe61d;" 
d="M249 169q-102 113 -102 265q0 109 54 201t148 145.5t204.5 53.5t204 -53.5t148 -145.5t54.5 -200.5t-54.5 -200.5t-148 -145.5t-204.5 -53.5q-144 0 -256 89q-1 -2 -4 -4l-64 -65l64 -64q10 -10 10 -23.5t-10 -23.5t-23.5 -10t-23.5 10l-64 64l-63 -63q-10 -9 -23.5 -9
t-23.5 9.5t-10 23t10 23.5l63 63l-63 64q-10 9 -10 23t9.5 23.5t23.5 9.5t24 -10l63 -63l65 65z" />
    <glyph glyph-name="uniE61E" unicode="&#xe61e;" 
d="M782 654q-89 89 -197 136t-210.5 44t-179.5 -55q-22 8 -46 2.5t-42 -22.5q-20 -21 -24 -49t10 -52q-27 -58 -30 -127.5t15.5 -140.5t60.5 -143t103 -133q113 -113 252.5 -156.5t255.5 -6.5q34 -14 71.5 -6.5t65.5 34.5l30 30q27 28 34.5 65.5t-6.5 71.5
q37 116 -6.5 255.5t-156.5 252.5zM872 54l-30 -30q-18 -17 -43 -18t-43 15q-98 -45 -229.5 -7t-239.5 145q-56 56 -94.5 122t-54.5 130.5t-11 126t32 110.5q-4 3 -7 6q-12 12 -12 29.5t12.5 30t30 12.5t29.5 -12l1 -1q63 52 154 57.5t189.5 -37t180.5 -124.5
q107 -108 145 -239.5t-7 -229.5q16 -18 15 -43t-18 -43z" />
    <glyph glyph-name="uniE61F" unicode="&#xe61f;" 
d="M762 -45q-80 -26 -168 -18.5t-181.5 54t-170.5 123.5q-63 63 -105.5 138t-60.5 148.5t-12 145t38 129.5q-15 19 -13.5 43t18.5 41q15 15 36 18t39 -7q77 58 182 63.5t215.5 -41.5t202.5 -138q77 -77 123.5 -170.5t54 -181.5t-18.5 -168q18 -25 15.5 -56.5t-24.5 -53.5
l-60 -60q-23 -22 -54 -24.5t-56 15.5z" />
    <glyph glyph-name="uniE620" unicode="&#xe620;" 
d="M960 791q1 4 1 9q0 14 -9.5 23.5t-23.5 9.5h-112q-13 0 -23 -9.5t-10 -23.5t10 -24t23 -10h42l-117 -117q-116 107 -273 107q-110 0 -203.5 -55t-148 -149.5t-54.5 -206t54.5 -206.5t148 -149.5t203.5 -54.5t203.5 54.5t147.5 149.5t54 206q0 142 -86 254l107 107v-36
q0 -14 10 -24t24 -10t24 10t10 24v111q0 5 -2 10zM806 345q0 -93 -45.5 -171.5t-123 -124.5t-169.5 -46t-170 46t-123 124.5t-45 171.5t45 172t123 125t170 46t169.5 -46t123 -125t45.5 -172z" />
    <glyph glyph-name="uniE621" unicode="&#xe621;" 
d="M858 766h-42q-13 0 -23 10t-10 24t10 23.5t23 9.5h112q14 0 23.5 -9.5t9.5 -23.5q0 -5 -1 -9q2 -5 2 -10v-111q0 -14 -10 -24t-24 -10t-24 10t-10 24v36l-107 -107q86 -112 86 -254q0 -111 -54 -206t-147.5 -149.5t-203.5 -54.5t-203.5 54.5t-148 149.5t-54.5 206.5
t54.5 206t148 149.5t203.5 55q157 0 273 -107z" />
    <glyph glyph-name="uniE622" unicode="&#xe622;" 
d="M925 549v126q0 15 -10.5 25.5t-25.5 10.5h-791q-15 0 -25.5 -10.5t-10.5 -25.5v-575q0 -15 10.5 -25.5t25.5 -10.5h791q15 0 25.5 10.5t10.5 25.5v162h-342q-15 0 -25.5 10.5t-10.5 24.5v216q0 15 10.5 25.5t25.5 10.5h342zM601 459q0 15 10.5 25.5t25.5 10.5h288
q15 0 25.5 -10.5t10.5 -25.5v-108q0 -14 -10.5 -25t-25.5 -11h-288q-15 0 -25.5 10.5t-10.5 25.5v108zM691 369q15 0 25.5 11t10.5 25.5t-10.5 25t-25.5 10.5t-25.5 -10.5t-10.5 -25t10.5 -25.5t25.5 -11z" />
    <glyph glyph-name="uniE623" unicode="&#xe623;" 
d="M812 619v-572q0 -16 -11 -27t-27 -11h-524q-16 0 -27 11t-11 27v572q0 12 -8.5 19.5t-19.5 7.5t-19.5 -7.5t-8.5 -19.5v-610q0 -31 22 -53t53 -22h562q31 0 53 22t22 53v610q-1 12 -9 19.5t-19.5 7.5t-19.5 -7.5t-8 -19.5zM493 543q0 12 8.5 20t20 8t19.5 -8t8 -20v-393
q0 -12 -8 -20t-19.5 -8t-20 8t-8.5 20v393zM699 506q0 11 8.5 19.5t20 8.5t19.5 -8.5t8 -19.5v-244q0 -11 -8 -19.5t-19.5 -8.5t-20 8.5t-8.5 19.5v244zM287 506q0 11 8.5 19.5t20 8.5t19.5 -8.5t8 -19.5v-244q0 -11 -8 -19.5t-19.5 -8.5t-20 8.5t-8.5 19.5v244zM156 730.5
q0 11.5 8 20t20 8.5h656q11 0 19.5 -8.5t8.5 -20t-8.5 -20t-19.5 -8.5h-656q-12 0 -20 8.5t-8 20zM568 834h-112q-16 0 -27 -11t-11 -27v-37h56v18q0 8 5.5 13.5t13.5 5.5h37q8 0 13.5 -5.5t5.5 -13.5v-18h57v37q0 16 -11 27t-27 11z" />
    <glyph glyph-name="uniE624" unicode="&#xe624;" 
d="M843 657h-664q-17 0 -28.5 -11.5t-11.5 -27.5v-606q0 -33 23 -55.5t55 -22.5h587q33 0 55.5 22.5t22.5 55.5v606q0 16 -11.5 27.5t-27.5 11.5zM335 237q0 -13 -8.5 -21.5t-21 -8.5t-21 8.5t-8.5 21.5v254q0 12 8.5 20.5t21 8.5t21 -8.5t8.5 -20.5v-254zM550 119
q0 -12 -8.5 -20.5t-21 -8.5t-21 8.5t-8.5 20.5v411q0 12 8.5 20.5t21 8.5t21 -8.5t8.5 -20.5v-411zM765 237q0 -13 -8.5 -21.5t-21 -8.5t-21 8.5t-8.5 21.5v254q0 12 8.5 20.5t21 8.5t21 -8.5t8.5 -20.5v-254zM139 725q0 12 9 21t21 9h684q12 0 20.5 -9t8.5 -21t-8.5 -20.5
t-20.5 -8.5h-684q-12 0 -21 8.5t-9 20.5zM413 794q0 16 11.5 27.5t27.5 11.5h117q17 0 28.5 -11.5t11.5 -27.5v-39h-196v39z" />
    <glyph glyph-name="uniE625" unicode="&#xe625;" 
d="M920 269l-27 15l-30 16v1l-8 4q-25 9 -40 30.5t-15 48.5q0 47 40 72l10 5q2 1 3 1l10 5l31 16l-1 1l27 15q14 8 18.5 24.5t-3.5 31.5l-63 108q-8 15 -24.5 19t-31.5 -4l-25 -15l-54 -36l-1 -1l-1 1q1 0 1 -1q-20 -10 -44.5 -8t-43.5 17q-29 23 -32 61l1 69v28
q0 17 -12 29t-28 12h-125q-17 0 -29 -12t-12 -29v-26l1 -27l-1 -1l1 -20l1 -20q-2 -40 -33 -64q-19 -15 -43 -17t-45 8v1l-47 32q-4 2 -7 4l-26 15q-15 8 -31.5 4t-24.5 -19l-63 -108q-8 -15 -3.5 -31.5t19.5 -24.5l25 -15l40 -22h1l16 -9q37 -24 37 -69t-37 -69l-56 -31
l-26 -15q-15 -8 -19.5 -24.5t3.5 -31.5l63 -108q8 -15 24.5 -19t31.5 4l28 16l6 4q8 6 17 10l31 20h1q45 20 84 -11q29 -22 32 -58v-65v-31q0 -17 12 -29t29 -12h125q16 0 28 12t12 29v33l-1 59v6h1h-1q4 35 32 56q19 15 43 17.5t44 -7.5l33 -20q6 -3 11 -6l12 -8l25 -15
q15 -8 31.5 -4t24.5 19l63 108q8 15 3.5 31.5t-18.5 24.5zM861 208l-21 -36q-4 -8 -12.5 -10t-15.5 2l-36 21q-37 25 -83.5 23.5t-83.5 -30.5q-28 -22 -42.5 -55.5t-11.5 -68.5v-38q0 -8 -6 -14t-14 -6h-42q-8 0 -14 6t-6 14v44h-1q2 34 -12 65.5t-42 52.5q-37 29 -83.5 30
t-84.5 -24l-34 -20q-7 -4 -15.5 -2t-12.5 10l-21 36q-4 7 -1.5 15.5t9.5 12.5l31 18q38 17 61 52t23 78t-23 78t-61 52l-31 18q-7 4 -9.5 12.5t1.5 15.5l21 36q4 8 12.5 10t15.5 -2l20 -12q39 -34 90 -36t93 30q29 23 43.5 57.5t10.5 70.5v38q0 8 6 14t14 6h42q8 0 14 -6
t6 -14v-41q-3 -36 11.5 -69t42.5 -56q42 -32 93.5 -30t90.5 37l19 11q7 4 15.5 2t12.5 -10l21 -36q4 -7 2 -15.5t-10 -12.5l-30 -17q-39 -17 -62.5 -52.5t-23.5 -78.5t23.5 -78.5t62.5 -52.5l30 -17q8 -4 10 -12.5t-2 -15.5zM512 527q-59 0 -101 -42t-42 -101t42 -101
t101 -42t101 42t42 101t-42 101t-101 42zM512 302q-34 0 -58 24t-24 58t24 58t58 24t58 -24t24 -58t-24 -58t-58 -24z" />
    <glyph glyph-name="uniE626" unicode="&#xe626;" 
d="M180 286q38 42 38 98t-38 98l-63 36q-14 8 -18.5 24.5t3.5 30.5l41 71q9 15 25 19.5t31 -4.5l32 -18q27 -12 56 -12q57 0 98.5 39t44.5 96v29q0 17 12 29t29 12h82q17 0 29 -12t12 -29v-29q3 -57 44.5 -96t98.5 -39q29 0 56 12l32 18q15 9 31 4.5t25 -19.5l41 -71
q8 -14 3.5 -30.5t-18.5 -24.5l-25 -15q-29 -20 -46 -51.5t-17 -67.5t17 -67.5t46 -51.5l25 -15q14 -8 18.5 -24.5t-3.5 -30.5l-41 -71q-9 -15 -25 -19.5t-31 4.5l-32 18q-27 12 -56 12q-57 0 -98.5 -39t-44.5 -96v-29q0 -17 -12 -29t-29 -12h-82q-17 0 -29 12t-12 29v29
q-3 57 -44.5 96t-98.5 39q-29 0 -56 -12l-32 -18q-15 -9 -31 -4.5t-25 19.5l-41 71q-8 14 -3.5 30.5t18.5 24.5zM512 241q59 0 101 42t42 101t-42 101t-101 42t-101 -42t-42 -101t42 -101t101 -42z" />
    <glyph glyph-name="uniE627" unicode="&#xe627;" 
d="M511 564q-67 0 -114.5 -47.5t-47.5 -114.5t47.5 -114.5t114.5 -47.5t114.5 47.5t47.5 114.5t-47.5 114.5t-114.5 47.5zM511 294q-45 0 -76.5 31.5t-31.5 76.5t31.5 76.5t76.5 31.5t76.5 -31.5t31.5 -76.5t-31.5 -76.5t-76.5 -31.5zM871 402q0 130 -82 228.5t-206 124.5v7
q0 29 -21 50.5t-51 21.5t-51 -21.5t-21 -50.5v-7q-124 -26 -206 -124.5t-82 -228.5q0 -115 66.5 -208t172.5 -131q-78 -91 -95 -108q-9 -10 15 -15q30 -6 200 -6q192 0 212 10q8 4 2 11q-17 17 -94 108q107 37 174 130t67 209zM493 762q0 7 5.5 12.5t12.5 5.5t12.5 -5.5
t5.5 -12.5v-1q-9 1 -18 1t-18 -1v1zM618 -3l-12 -4q-28 -5 -101 -5q-104 1 -104 9l46 51l5 -1q28 -4 56 -5v0h3q31 0 61 6zM511 96q-127 0 -216.5 89.5t-89.5 216.5t89.5 216.5t216.5 89.5t216.5 -89.5t89.5 -216.5t-89.5 -216.5t-216.5 -89.5z" />
    <glyph glyph-name="uniE628" unicode="&#xe628;" 
d="M511 749q-92 0 -170.5 -45.5t-123.5 -123.5t-45 -170.5t45 -170.5t123.5 -123.5t170.5 -45.5t170 45.5t123.5 123.5t45.5 170.5t-45.5 170.5t-123.5 123.5t-170 45.5zM511 257q-63 0 -108 44.5t-45 108t45 108t108 44.5t107.5 -44.5t44.5 -108t-44.5 -108t-107.5 -44.5z
M396 55q-74 -85 -89 -101q-8 -10 14 -14q28 -6 189 -6q183 0 200 10q8 4 2 10q-15 17 -89 102q-56 -20 -115 -20q-58 0 -112 19zM579 776q-4 25 -23.5 41.5t-45 16.5t-44.5 -16.5t-23 -41.5q33 7 67.5 7t68.5 -7z" />
    <glyph glyph-name="uniE629" unicode="&#xe629;" 
d="M753 834h-482q-13 0 -22.5 -9.5t-9.5 -22.5v-836q0 -13 9.5 -22.5t22.5 -9.5h482q13 0 22.5 9.5t9.5 22.5v836q0 13 -9.5 22.5t-22.5 9.5zM737 -1q0 -7 -5 -11.5t-11 -4.5h-418q-6 0 -11 4.5t-5 11.5v128h450v-128zM737 175h-450v450h450v-450zM737 673h-450v96
q0 7 5 11.5t11 4.5h418q6 0 11 -4.5t5 -11.5v-96zM512 95q-20 0 -34 -14t-14 -34t14 -34t34 -14t34 14t14 34t-14 34t-34 14zM512 31q-7 0 -11.5 4.5t-4.5 11t4.5 11.5t11.5 5t11.5 -5t4.5 -11.5t-4.5 -11t-11.5 -4.5zM624.5 721q6.5 0 11 5t4.5 11.5t-4.5 11t-11 4.5
t-11.5 -4.5t-5 -11t5 -11.5t11.5 -5zM448 737.5q0 6.5 4.5 11t11.5 4.5h96q7 0 11.5 -4.5t4.5 -11t-4.5 -11.5t-11.5 -5h-96q-7 0 -11.5 5t-4.5 11.5z" />
    <glyph glyph-name="uniE62A" unicode="&#xe62a;" 
d="M753 834h-482q-13 0 -22.5 -9.5t-9.5 -22.5v-836q0 -13 9.5 -22.5t22.5 -9.5h482q13 0 22.5 9.5t9.5 22.5v836q0 13 -9.5 22.5t-22.5 9.5zM632 769q10 0 17.5 -7t7.5 -17t-7.5 -17t-17.5 -7t-17 7t-7 17t7 17t17 7zM472 769h80q10 0 17 -7t7 -17t-7 -17t-17 -7h-80
q-10 0 -17 7t-7 17t7 17t17 7zM512 -17q-20 0 -34 14t-14 34t14 34t34 14t34 -14t14 -34t-14 -34t-34 -14zM737 143q0 -7 -5 -11.5t-11 -4.5h-418q-6 0 -11 5t-5 11v514q0 7 5 11.5t11 4.5h418q6 0 11 -4.5t5 -11.5v-514z" />
    <glyph glyph-name="uniE62B" unicode="&#xe62b;" 
d="M512 802v2v-2zM392 -66h-165q-12 0 -21 9t-9 21v390h-120q-6 0 -10.5 4.5t-4.5 10.5q0 7 6 12l431 445q4 8 13 8t13 -8l431 -445q6 -5 6 -12q0 -6 -4.5 -10.5t-10.5 -4.5h-150v-390q0 -12 -9 -21t-21 -9h-165v225q0 13 -9 21.5t-21 8.5h-150q-12 0 -21 -8.5t-9 -21.5
v-225zM512 780l-361 -381h92v-405q-3 -13 6 -22q4 -4 10 -6t9 -1.5t4 0.5h66h10v29v180q-2 26 11 41q6 7 14.5 12t13.5 6l5 1h195q27 0 43 -19q8 -8 12 -18.5t4 -16.5l1 -6v-209h75q13 -2 23 7q4 4 6 9.5t2 9.5l-1 3v405h129z" />
    <glyph glyph-name="uniE62C" unicode="&#xe62c;" 
d="M511 802v2v-2zM391 -66h-165q-12 0 -21 9t-9 21v390h-120q-6 0 -10.5 4.5t-4.5 10.5q0 7 6 12l431 445q4 8 13 8t13 -8l431 -445q6 -5 6 -12q0 -6 -4.5 -10.5t-10.5 -4.5h-150v-390q0 -12 -9 -21t-21 -9h-165v225q0 13 -9 21.5t-21 8.5h-150q-12 0 -21 -8.5t-9 -21.5
v-225z" />
    <glyph glyph-name="uniE62D" unicode="&#xe62d;" 
d="M511 834q-112 0 -191 -79t-79 -191v-360q0 -112 79 -191t191 -79t191 79t79 191v360q0 112 -79 191t-191 79zM727 204q0 -89 -63.5 -152.5t-153 -63.5t-152.5 63.5t-63 152.5v360q0 89 63 152.5t152.5 63.5t153 -63.5t63.5 -152.5v-360zM475 636q0 15 10.5 25.5
t25.5 10.5t25.5 -10.5t10.5 -25.5v-108q0 -15 -10.5 -25.5t-25.5 -10.5t-25.5 10.5t-10.5 25.5v108z" />
    <glyph glyph-name="uniE62E" unicode="&#xe62e;" 
d="M511 834q-112 0 -191 -79t-79 -191v-360q0 -112 79 -191t191 -79t191 79t79 191v360q0 112 -79 191t-191 79zM547 528q0 -15 -10.5 -25.5t-25.5 -10.5t-25.5 10.5t-10.5 25.5v108q0 15 10.5 25.5t25.5 10.5t25.5 -10.5t10.5 -25.5v-108z" />
    <glyph glyph-name="uniE62F" unicode="&#xe62f;" 
d="M745 697q-104 78 -235 78q-106 0 -196 -52.5t-142.5 -142.5t-52.5 -196q0 -90 39 -171l-48 -34q-49 96 -49 205q0 91 35.5 174.5t95.5 143.5t143.5 96t174.5 36q153 0 274 -93v63q0 12 8.5 21t20.5 9t20.5 -9t8.5 -21v-137q0 -12 -8.5 -20.5t-20.5 -8.5h-137
q-12 0 -20.5 8.5t-8.5 21t8.5 21t20.5 8.5h69zM276 71q104 -78 234 -78q106 0 196 52.5t142.5 142.5t52.5 196q0 73 -26 141l49 34q36 -83 36 -174.5t-35.5 -175t-96 -143.5t-143.5 -96t-175 -36q-153 0 -274 93v-63q0 -12 -8.5 -21t-20.5 -9t-20.5 9t-8.5 21v137
q0 12 8.5 20.5t20.5 8.5h137q12 0 20.5 -8.5t8.5 -21t-8.5 -21t-20.5 -8.5h-68z" />
    <glyph glyph-name="uniE630" unicode="&#xe630;" 
d="M950 -21l-243 243q94 105 94 245q0 99 -49 183.5t-133.5 134t-184.5 49.5t-184.5 -49.5t-133.5 -134t-49 -184t49 -184t133.5 -133.5t184.5 -49q133 0 235 85l244 -244q7 -7 17.5 -6.5t18.5 8t8 18t-7 18.5zM119 466.5q0 130.5 92.5 222.5t222.5 92t222 -92t92 -222.5
t-92 -222.5t-222 -92t-222.5 92t-92.5 222.5z" />
    <glyph glyph-name="uniE631" unicode="&#xe631;" 
d="M947 -22l-244 245q96 104 96 246q0 99 -48.5 183t-133 133t-183.5 49t-183 -49t-133 -133t-49 -183t49 -183t133 -133t183 -49q131 0 231 83l246 -246q7 -7 17.5 -6.5t18 8t8 18t-7.5 17.5z" />
    <glyph glyph-name="uniE632" unicode="&#xe632;" 
d="M335 381l259 -260q9 -8 20.5 -8t19.5 8t8 20t-8 20l-72 72l96 96l145 -145q9 -8 20.5 -8t19.5 8t8 20t-8 20l-159 159q-11 11 -26 7q-15 4 -26 -7l-110 -110l-166 166q-9 9 -21 8q-12 1 -21 -8l-119 -119q-9 -8 -9 -20t8.5 -20t20 -8t19.5 8zM886 834h-748q-32 0 -54 -22
t-22 -54v-748q0 -32 22 -54t54 -22h748q32 0 54 22t22 54v748q0 32 -22 54t-54 22zM905 28q0 -15 -11 -26t-26 -11h-712q-15 0 -26 11t-11 26v712q0 15 11 26t26 11h712q15 0 26 -11t11 -26v-712zM774 534q31 0 53 22t22 53t-22 53t-53 22t-53 -22t-22 -53t22 -53t53 -22z
" />
    <glyph glyph-name="uniE633" unicode="&#xe633;" 
d="M886 834h-748q-32 0 -54 -22t-22 -54v-748q0 -32 22 -54t54 -22h748q32 0 54 22t22 54v748q0 32 -22 54t-54 22zM774 665q31 0 53 -22t22 -53t-22 -53t-53 -22t-53 22t-22 53t22 53t53 22zM843 165.5q-8 -8.5 -19.5 -8.5t-20.5 8l-145 145l-96 -96l72 -72q8 -8 8 -19.5
t-8 -20t-19.5 -8.5t-20.5 8l-259 260l-101 -101q-8 -8 -19.5 -8t-20 8.5t-8.5 20t9 19.5l119 119q9 9 21 9t21 -9l166 -166l110 110q11 11 26 8q15 3 26 -8l159 -159q8 -8 8 -19.5t-8 -20z" />
    <glyph glyph-name="uniE634" unicode="&#xe634;" 
d="M834 345h-352q-12 0 -20.5 8.5t-8.5 20.5t8.5 21t20.5 9h359l-74 74q-9 9 -9 21t8.5 20.5t21 8.5t20.5 -8l109 -110q9 -1 16 -8q10 -10 8 -24q2 -14 -8 -24q-7 -7 -16 -8l-109 -110q-8 -8 -20.5 -8t-21 8.5t-8.5 20.5t9 21zM746 658v97q0 33 -23 56t-55 23h-509
q-32 0 -55 -23t-23 -56v-742q0 -33 23 -56t55 -23h509q32 0 55 23t23 56v97q0 12 -8.5 21t-21 9t-21 -9t-8.5 -21v-78q0 -16 -11.5 -27.5t-27.5 -11.5h-469q-16 0 -27.5 11.5t-11.5 27.5v704q0 16 11.5 27.5t27.5 11.5h469q16 0 27.5 -11.5t11.5 -27.5v-78q0 -12 8.5 -21
t21 -9t21 9t8.5 21z" />
    <glyph glyph-name="uniE635" unicode="&#xe635;" 
d="M821 284q-58 0 -99 -41t-41 -99t41 -98.5t99 -40.5t98.5 40.5t40.5 98.5t-40.5 99t-98.5 41zM820.5 51q-38.5 0 -65.5 27.5t-27 66t27 65.5t65.5 27t66 -27t27.5 -65.5t-27.5 -66t-66 -27.5zM743 144.5q0 6.5 4.5 11t11.5 4.5h124q6 0 10.5 -4.5t4.5 -11t-4.5 -11
t-10.5 -4.5h-124q-7 0 -11.5 4.5t-4.5 11zM873 307q-1 0 -1 1q-71 69 -169 69h-15q-10 0 -16.5 7.5t-6.5 17t6.5 16t16.5 6.5h7q48 0 81 34t33 82t-33 82t-81 34q-18 0 -35 -6q-3 -1 -12 -5q-13 -4 -20 2.5t-8 17.5q-4 21 21 28q26 9 54 9q66 0 113 -47.5t47 -114.5
q0 -78 -60 -127q64 -22 112 -71q10 -7 10 -19q0 -11 -7.5 -18t-17.5 -7q-12 0 -19 9zM657 265q-69 84 -175 107h-3q-11 0 -19 7.5t-8 19t8 19t19 8.5q42 17 68 55.5t26 86.5q0 64 -45.5 109t-109.5 45q-51 0 -92 -30q-7 5 -17 5q-12 0 -21.5 -9t-9.5 -22q0 -11 7 -19
q-22 -37 -22 -79q0 -48 26.5 -86.5t68.5 -56.5q9 -2 15 -9.5t6 -16.5q0 -11 -7.5 -19t-18.5 -8q-103 -22 -172 -103.5t-73 -188.5q1 -3 1 -6q0 -9 -7 -16t-17 -7q-8 0 -14.5 5.5t-7.5 13.5h-2q0 116 68 208.5t175 128.5q-39 27 -61.5 69.5t-22.5 91.5q0 47 22 89
q-8 13 -8 29q0 21 15 36.5t37 15.5q13 0 24 -5q49 31 108 31q82 0 140 -57.5t58 -138.5q0 -49 -22.5 -91.5t-61.5 -69.5q99 -33 165 -115h-1q7 -7 7 -17t-7 -17t-17 -7q-15 0 -22 14z" />
    <glyph glyph-name="uniE636" unicode="&#xe636;" 
d="M683 265q-76 101 -198 129q51 23 82 70t31 105q0 79 -56 135t-135 56q-57 0 -105 -31q-11 6 -23 6q-21 0 -36 -15t-15 -36q0 -16 8 -28q-21 -41 -21 -87q0 -58 31.5 -105t82.5 -70q-113 -26 -188 -116t-79 -207h588q-18 35 -18 75q0 70 51 119zM874 326q-49 47 -114 67
q34 21 54.5 56.5t20.5 77.5q0 66 -46.5 112t-111.5 46q-35 0 -66 -14q27 -49 27 -106q0 -88 -60 -153q-2 -1 -4 -3q-1 -1 -1 -2q-1 -3 -1 -7q0 -13 13 -14q71 -39 120 -103q41 28 91 28q32 0 61 -12q2 -1 10 -7q18 -11 19 -11q7 0 11 4t4 11q0 4 -8.5 13.5t-18.5 16.5z
M961 136v-5v5zM796.5 11q55.5 0 95 39.5t39.5 95.5t-39.5 95.5t-95 39.5t-95 -39.5t-39.5 -95.5t39.5 -95.5t95 -39.5zM707 145.5q0 6.5 4 11t11 4.5h149q7 0 11 -4.5t4 -11t-4.5 -10.5t-10.5 -4h-149q-7 0 -11 4t-4 10.5z" />
    <glyph glyph-name="uniE637" unicode="&#xe637;" 
d="M950 -33q0 -13 -10 -23t-23 -10h-812q-13 0 -23 10t-10 23q0 14 10 23.5t23 9.5h812q13 0 23 -9.5t10 -23.5zM480 197v604q0 13 9.5 23t23 10t23.5 -10t10 -23v-601l190 190q9 10 22.5 10t23.5 -9.5t10 -23t-10 -23.5l-232 -233l-8 -6q-10 -17 -29 -17t-28 15q-7 3 -13 8
l-232 233q-10 10 -10 23.5t10 23t23.5 9.5t22.5 -10z" />
    <glyph glyph-name="uniE638" unicode="&#xe638;" 
d="M920 630h-275l31 -61h203q8 0 14 -6t6 -15v-449q0 -9 -6 -15t-14 -6h-736q-8 0 -14 6t-6 15v449q0 9 6 15t14 6h204l31 61h-276q-17 0 -29 -12t-12 -29v-531q0 -17 12 -29t29 -12h818q17 0 29 12t12 29v531q0 17 -12 29t-29 12zM645 630h71l-44 86q-7 15 -24.5 26
t-34.5 11h-204q-17 0 -34.5 -11t-24.5 -26l-43 -86h71l21 43q4 8 12.5 13t17.5 5h164q9 0 17.5 -5t12.5 -13zM511 528q-85 0 -144.5 -60t-59.5 -144.5t59.5 -144.5t144.5 -60t144.5 60t59.5 144.5t-59.5 144.5t-144.5 60zM511 180q-59 0 -101 42t-42 101.5t42 101.5t101 42
t101 -42t42 -101.5t-42 -101.5t-101 -42zM817.5 446q16.5 0 28.5 12t12 29t-12 29t-28.5 12t-28.5 -12t-12 -29t12 -29t28.5 -12z" />
    <glyph glyph-name="uniE639" unicode="&#xe639;" 
d="M61 589q0 17 12 29t29 12h818q17 0 29 -12t12 -29v-531q0 -17 -12 -29t-29 -12h-818q-17 0 -29 12t-12 29v531zM838 467q17 0 29 12t12 28.5t-12 28.5t-29 12t-29 -12t-12 -28.5t12 -28.5t29 -12zM511 119q85 0 144.5 60t59.5 144.5t-59.5 144.5t-144.5 60t-144.5 -60
t-59.5 -144.5t59.5 -144.5t144.5 -60zM350 716q7 15 24.5 26t34.5 11h204q17 0 34.5 -11t24.5 -26l44 -86h-409z" />
    <glyph glyph-name="uniE63A" unicode="&#xe63a;" 
d="M512 832q-122 0 -225.5 -52t-164 -142t-60.5 -197q0 -93 47.5 -174t128.5 -136v-137q0 -16 9.5 -20.5t22.5 5.5l115 87q62 -16 127 -16q122 0 225.5 52.5t164 142.5t60.5 196.5t-60.5 196.5t-164 142t-225.5 52zM512 109q-65 0 -125 18l-90 -57v94q-81 45 -128.5 118.5
t-47.5 159.5q0 90 52.5 166.5t142.5 121t196 44.5t196 -44.5t142.5 -121t52.5 -167t-52.5 -167t-142.5 -121t-196 -44.5zM277.5 500q24.5 0 41.5 -17t17 -41.5t-17 -41.5t-41.5 -17t-41.5 17t-17 41.5t17 41.5t41.5 17zM512 500q24 0 41.5 -17t17.5 -41.5t-17.5 -41.5
t-41.5 -17t-41.5 17t-17.5 41.5t17.5 41.5t41.5 17zM746.5 500q24.5 0 41.5 -17t17 -41.5t-17 -41.5t-41.5 -17t-41.5 17t-17 41.5t17 41.5t41.5 17z" />
    <glyph glyph-name="uniE63B" unicode="&#xe63b;" 
d="M238 131q-81 55 -128.5 136t-47.5 174q0 107 60.5 197t164 142t225.5 52t225.5 -52t164 -142t60.5 -196.5t-60.5 -196.5t-164 -142.5t-225.5 -52.5q-65 0 -127 16l-115 -87q-13 -10 -22.5 -5.5t-9.5 20.5v137zM785.5 383q24.5 0 41.5 17t17 41.5t-17 41.5t-41.5 17
t-41.5 -17t-17 -41.5t17 -41.5t41.5 -17zM512 383q24 0 41.5 17t17.5 41.5t-17.5 41.5t-41.5 17t-41.5 -17t-17.5 -41.5t17.5 -41.5t41.5 -17zM238.5 383q24.5 0 41.5 17t17 41.5t-17 41.5t-41.5 17t-41.5 -17t-17 -41.5t17 -41.5t41.5 -17z" />
    <glyph glyph-name="uniE63C" unicode="&#xe63c;" 
d="M896 792q0 4 -1 8l-2 16q0 8 -7 13.5t-16 3.5l-530 -93q-16 -3 -18 -19q-4 -6 -4 -13v-539q-29 17 -64 17q-53 0 -90.5 -37t-37.5 -89t37.5 -89t90.5 -37t91 37t38 89q0 7 -1 14q1 3 1 6v433l449 79v-298q-30 17 -64 17q-53 0 -91 -36.5t-38 -88.5t38 -89t91 -37t90.5 37
t37.5 89v14v6v586zM254 -3q-27 0 -45.5 18.5t-18.5 44.5t18.5 44.5t45.5 18.5t45.5 -18.5t18.5 -44.5t-18.5 -44.5t-45.5 -18.5zM767.5 123q-26.5 0 -45 18.5t-18.5 44.5t18.5 44.5t45 18.5t45.5 -18.5t19 -44.5t-19 -44.5t-45.5 -18.5zM832 657l-449 -79v104l449 78v-103z
" />
    <glyph glyph-name="uniE63D" unicode="&#xe63d;" 
d="M845 831l-484 -80l-4 -2h-18q-9 0 -15 -6t-6 -15v-553q-30 17 -65 17q-53 0 -90.5 -37.5t-37.5 -90.5t37.5 -90.5t91 -37.5t91 37.5t37.5 90.5q0 8 -1 15q1 3 1 6v450l449 79v-311q-29 17 -64 17q-53 0 -90.5 -37.5t-37.5 -90.5t37.5 -90.5t90.5 -37.5t91 37.5t38 90.5
q0 8 -1 15q1 3 1 7v598q0 7 -5 13t-13 8q-6 3 -13 2l-11 -2h-1q-4 0 -8 -2z" />
    <glyph glyph-name="uniE63E" unicode="&#xe63e;" 
d="M922 677h-820q-17 0 -28.5 -11.5t-11.5 -27.5v-508q0 -16 11.5 -27.5t28.5 -11.5h820q17 0 28.5 11.5t11.5 27.5v508q0 16 -11.5 27.5t-28.5 11.5zM903 169q0 -8 -6 -14t-14 -6h-742q-8 0 -14 6t-6 14v313h782v-313zM903 560h-782v39q0 8 6 14t14 6h742q8 0 14 -6t6 -14
v-39zM317 325h-118q-8 0 -13.5 -5.5t-5.5 -13.5v-118q0 -8 5.5 -13.5t13.5 -5.5h118q8 0 13.5 5.5t5.5 13.5v118q0 8 -5.5 13.5t-13.5 5.5zM297 208h-78v78h78v-78zM414 237.5q0 12.5 8.5 21t21.5 8.5h293q12 0 20.5 -8.5t8.5 -21t-8.5 -21t-20.5 -8.5h-293q-13 0 -21.5 8.5
t-8.5 21zM834.5 208q12.5 0 21 8.5t8.5 21t-8.5 21t-21 8.5t-21 -8.5t-8.5 -21t8.5 -21t21 -8.5z" />
    <glyph glyph-name="uniE63F" unicode="&#xe63f;" 
d="M921 677h-820q-17 0 -28.5 -11.5t-11.5 -27.5v-508q0 -16 11.5 -27.5t28.5 -11.5h820q17 0 28.5 11t11.5 28v508q0 16 -11.5 27.5t-28.5 11.5zM276 188q0 -8 -5.5 -13.5t-13.5 -5.5h-117q-9 0 -14.5 5.5t-5.5 13.5v118q0 8 6 13.5t14 5.5h117q8 0 13.5 -5.5t5.5 -13.5
v-118zM736 208h-293q-13 0 -21.5 8.5t-8.5 20.5t8.5 21t21.5 9h293q12 0 20.5 -8.5t8.5 -21t-8.5 -21t-20.5 -8.5zM833.5 208q-12.5 0 -21 8.5t-8.5 20.5t8.5 21t21 9t21 -9t8.5 -21t-8.5 -20.5t-21 -8.5zM921 501q0 -8 -5.5 -13.5t-13.5 -5.5h-782q-8 0 -14 5.5t-6 13.5v79
q0 8 6 13.5t14 5.5h782q8 0 13.5 -5.5t5.5 -13.5v-79z" />
    <glyph glyph-name="uniE640" unicode="&#xe640;" 
d="M513 372l-261 151q-8 4 -17 1.5t-13.5 -10.5t-2 -17t10.5 -13l268 -155q7 -6 15 -6t15 6l269 155q8 4 10 13t-2.5 17t-13.5 10.5t-17 -1.5zM932 699h-840q-12 0 -21 -9t-9 -21v-570q0 -12 9 -21t21 -9h840q12 0 21 9t9 21v570q0 12 -9 21t-21 9zM917 129q0 -6 -4.5 -10.5
t-10.5 -4.5h-780q-6 0 -10.5 4.5t-4.5 10.5v510q0 6 4.5 10.5t10.5 4.5h780q6 0 10.5 -4.5t4.5 -10.5v-510z" />
    <glyph glyph-name="uniE641" unicode="&#xe641;" 
d="M902 700h-780q-24 0 -42 -17.5t-18 -42.5v-509q0 -25 18 -42.5t42 -17.5h780q24 0 42 17.5t18 42.5v509q0 25 -18 42.5t-42 17.5zM797 485l-269 -155q-6 -5 -15 -5q-8 0 -15 5l-268 155q-8 5 -10.5 14t2 17t13.5 10.5t17 -2.5l261 -151l261 151q8 5 17 2.5t13.5 -10.5
t2.5 -17t-10 -14z" />
    <glyph glyph-name="uniE642" unicode="&#xe642;" 
d="M528 483h40q10 0 17 -7t7 -17v-8h161q86 0 147.5 -61.5t61.5 -148t-61.5 -147.5t-147.5 -61q-60 0 -109.5 31t-75.5 82h-112q-26 -51 -75.5 -82t-109.5 -31q-86 0 -147.5 61t-61.5 148q0 82 56 142t137 66v1h177v8q0 10 7 17t17 7h40v273q0 6 4.5 11t11.5 5t11.5 -5
t4.5 -11v-273zM271 274v48q0 7 -4.5 11.5t-11.5 4.5t-11.5 -4.5t-4.5 -11.5v-48h-48q-7 0 -11.5 -4.5t-4.5 -11.5t4.5 -11.5t11.5 -4.5h48v-48q0 -7 4.5 -11.5t11.5 -4.5t11.5 4.5t4.5 11.5v48h48q7 0 11.5 4.5t4.5 11.5t-4.5 11.5t-11.5 4.5h-48zM480 402h-225
q-61 -6 -102.5 -52t-41.5 -108q0 -67 47 -114t113 -47q53 0 95.5 31.5t57.5 81.5h176q15 -50 57.5 -81.5t95.5 -31.5q66 0 113 47t47 114q0 62 -41.5 108t-102.5 52h-225v17q0 6 -4.5 11t-11.5 5h-32q-7 0 -11.5 -5t-4.5 -11v-17zM801 226q13 0 22.5 9.5t9.5 22.5t-9.5 22.5
t-22.5 9.5t-22.5 -9.5t-9.5 -22.5t9.5 -22.5t22.5 -9.5zM704.5 226q13.5 0 23 9.5t9.5 22.5t-9.5 22.5t-23 9.5t-22.5 -9.5t-9 -22.5t9 -22.5t22.5 -9.5z" />
    <glyph glyph-name="uniE643" unicode="&#xe643;" 
d="M528 483h40q10 0 17 -7t7 -17v-8h161q86 0 147.5 -61.5t61.5 -148t-61.5 -147.5t-147.5 -61q-60 0 -109.5 31t-75.5 82h-112q-26 -51 -75.5 -82t-109.5 -31q-86 0 -147.5 61t-61.5 148q0 82 56 142t137 66v1h177v8q0 10 7 17t17 7h40v273q0 6 4.5 11t11.5 5t11.5 -4.5
t4.5 -11.5v-273zM271 274v48q0 7 -4.5 11.5t-11.5 4.5t-11.5 -4.5t-4.5 -11.5v-48h-48q-7 0 -11.5 -4.5t-4.5 -11.5t4.5 -11.5t11.5 -4.5h48v-48q0 -7 4.5 -11.5t11.5 -4.5t11.5 4.5t4.5 11.5v48h48q7 0 11.5 4.5t4.5 11.5t-4.5 11.5t-11.5 4.5h-48zM817 226q13 0 22.5 9.5
t9.5 22.5t-9.5 22.5t-22.5 9.5t-22.5 -9.5t-9.5 -22.5t9.5 -22.5t22.5 -9.5zM704.5 226q13.5 0 23 9.5t9.5 22.5t-9.5 22.5t-23 9.5t-22.5 -9.5t-9 -22.5t9 -22.5t22.5 -9.5z" />
    <glyph glyph-name="uniE644" unicode="&#xe644;" 
d="M203 571q-31 0 -53 -22t-22 -53v-487q0 -31 22 -53t53 -22t53 22t22 53v487q0 31 -22 53t-53 22zM222 9q0 -7 -5.5 -12.5t-13.5 -5.5t-13.5 5t-5.5 13v487q0 8 5.5 13.5t13.5 5.5t13.5 -5.5t5.5 -13.5v-487zM738 571h-145q22 17 22 45v105q0 47 -33 80t-79.5 33
t-79.5 -33t-33 -80v-49q0 -3 1 -7h-1v-9q0 -35 -21 -62.5t-54 -37.5v-41v-506q0 -31 22 -53t53 -22h276q62 0 113 43.5t62 104.5l52 305q14 76 -32 130t-123 54zM835 367l-47 -266q-8 -46 -47 -78.5t-86 -32.5h-246q-16 0 -27 11t-11 27v486h2q42 25 59 68q16 39 15 75v8v56
q0 24 16.5 40t39.5 16t39.5 -16.5t16.5 -39.5v-56v-4q2 -48 0 -57q0 -14 -17 -43q-5 -7 -20 -22q-12 -2 -12 -12q0 -5 3.5 -8.5t8.5 -3.5v-1h190q62 0 98 -43t25 -104z" />
    <glyph glyph-name="uniE645" unicode="&#xe645;" 
d="M129 496q0 31 21.5 53t52.5 22t53 -22t22 -53v-487q0 -31 -22 -53t-53 -22t-52.5 22t-21.5 53v487zM391 665h-1q1 -5 1 -9q0 -35 -21 -62.5t-54 -37.5v-41v-506q0 -31 22 -53t53 -22h274q62 0 113.5 43.5t61.5 104.5l53 305q13 76 -32.5 130t-123.5 54h-181q22 17 22 45
v124q0 39 -27.5 66.5t-66 27.5t-66 -27.5t-27.5 -66.5v-75z" />
    <glyph glyph-name="uniE646" unicode="&#xe646;" 
d="M952 511q-17 10 -47 10q-13 0 -21.5 -2t-9.5 -4l-2 -2q-14 -9 -14 -27v-17l-49 225q-2 8 -8 13.5t-12 6.5q-92 14 -277 14q-30 0 -58.5 -0.5t-51.5 -1t-44 -2t-37.5 -2.5t-30.5 -2t-24 -2.5t-17 -2t-11 -1.5h-3q-7 -1 -13 -7t-8 -13l-48 -225v17q0 18 -14 27q-3 8 -33 8
q-13 0 -25 -2.5t-17 -5.5l-5 -2q-7 -3 -9 -9.5t2 -12.5l13 -23q9 -14 26 -14h15q-5 -8 -5 -18v-268v-77q0 -15 10.5 -25t24.5 -10h144q14 0 27 10t16 23l14 53h324l14 -53q3 -13 16 -23t27 -10h144q14 0 24.5 10t10.5 25v77v268q0 10 -5 18h15q17 0 26 14l13 23q4 6 2 12.5
t-9 9.5zM256 647q2 7 8 12.5t13 6.5q75 10 234 10q70 0 128.5 -2.5t81.5 -4.5l23 -3q7 -1 13.5 -6.5t7.5 -12.5l30 -145q1 -7 -3 -12t-11 -5h-538q-7 0 -11 5t-3 12zM858 202v-79q0 -7 -5 -12t-12 -5h-84q-15 0 -27 10t-14 24l-10 52h-388l-10 -52q-2 -14 -14.5 -24
t-26.5 -10h-84q-7 0 -12 5t-5 12v88v206q0 7 5 12t13 5h656q8 0 13 -5t5 -12v-215zM343 249q-5 5 -3.5 8.5t8.5 3.5h328q7 0 8.5 -3.5t-3.5 -8.5l-11 -10q-12 -12 -29 -12h-257q-17 0 -30 12zM184 388q-1 7 2.5 10t10.5 1l120 -50q15 -7 25 -21l12 -19q4 -6 1.5 -10t-9.5 -3
l-133 13q-7 0 -13 5.5t-7 12.5zM840 388q1 7 -2.5 10t-10.5 1l-120 -50q-16 -7 -25 -21l-12 -19q-4 -6 -1.5 -10t9.5 -3l133 13q7 0 12.5 5.5t7.5 12.5z" />
    <glyph glyph-name="uniE647" unicode="&#xe647;" 
d="M951 541q-17 10 -47 10q-13 0 -21.5 -2t-9.5 -3l-2 -2q-14 -10 -14 -27v-35h-1l-45 208q-1 7 -7 13t-14 7q-91 14 -278 14q-83 0 -152.5 -3.5t-97.5 -7.5l-28 -3q-7 -1 -13 -7t-8 -13l-45 -208h-3v35q0 17 -15 27q-3 7 -33 7q-13 0 -24.5 -2.5t-17.5 -4.5l-5 -3
q-6 -3 -8 -9.5t1 -12.5l14 -22q9 -15 26 -15h44q-14 0 -24 -10t-10 -24v-269v-77q0 -15 10 -25t24 -10h144q15 0 27.5 10t16.5 24l14 53h323l15 -53q3 -14 16 -24t27 -10h144q14 0 24.5 10t10.5 25v77v269q0 14 -10.5 24t-24.5 10h44q18 0 26 15l14 22q4 6 2 12.5t-9 9.5z
M309 292l-132 13q-7 0 -12.5 5.5t-7.5 12.5l-9 60q-1 7 3 10t10 1l119 -49q16 -7 25 -21l12 -19q4 -6 2 -10t-10 -3zM680 228l-11 -11q-12 -12 -30 -12h-256q-18 0 -30 12l-11 11q-5 5 -4 8.5t9 3.5h328q7 0 8.5 -3.5t-3.5 -8.5zM245 482q-7 0 -11.5 5t-2.5 12l24 144
q1 7 7 12.5t13 6.5q76 10 234 10q71 0 129 -2.5t82 -5.5l23 -2q7 -1 13 -6.5t7 -12.5l30 -145q2 -7 -2 -12t-11 -5zM864 323q-1 -7 -7 -12.5t-13 -5.5l-132 -13q-7 -1 -9.5 3t1.5 10l12 19q10 14 26 21l118 49q7 2 11 -1t3 -10z" />
    <glyph glyph-name="uniE648" unicode="&#xe648;" 
d="M856 274q-72 86 -175 128q80 74 80 183q0 103 -73 176t-177 73q-74 0 -136 -41q-14 7 -30 7q-27 0 -46.5 -19t-19.5 -47q0 -20 10 -36q-27 -53 -27 -113q0 -109 80 -183q-125 -51 -202.5 -163.5t-77.5 -251.5h1q-2 -4 -2 -8q0 -11 7.5 -18t17.5 -7h516q11 0 18.5 7
t7.5 17.5t-7.5 18t-18.5 7.5h-490q6 128 85 228.5t200 136.5h1q12 0 21 6t9 19q0 19 -31 27v1q-39 27 -62 70t-23 93q0 64 38 116q-9 1 -15.5 8t-6.5 17t7.5 17.5t17.5 7.5q20 0 24 -19q58 52 135 52q83 0 141.5 -58.5t58.5 -140.5q0 -50 -23 -93t-62 -71q-10 -2 -15 -4
t-11.5 -8t-6.5 -15q0 -25 31 -25q116 -35 194 -129q8 -13 23 -13q10 0 17.5 8t7.5 18q0 14 -11 21zM875 136h-156q-10 0 -17.5 -7t-7.5 -17.5t7.5 -17.5t17.5 -7h217q10 0 17.5 7t7.5 17q0 12 -9 20l-58 58q-8 7 -18 7t-17.5 -7.5t-7.5 -17.5t7 -18zM709 43q5 2 10 2h217
q10 0 17.5 -7.5t7.5 -17.5t-7.5 -17.5t-17.5 -7.5h-165l18 -18q8 -7 8 -17.5t-7.5 -18t-18 -7.5t-17.5 8l-59 59q-7 7 -7 17.5t7 17.5q6 6 14 7z" />
    <glyph glyph-name="uniE649" unicode="&#xe649;" 
d="M818 793h102q17 0 29 -12t12 -29v-163q0 -17 -12 -29.5t-29 -12.5h-818q-17 0 -29 12.5t-12 29.5v163q0 17 12 29t29 12h102v-62h-61q-8 0 -14 -5.5t-6 -14.5v-82q0 -8 6 -14t14 -6h736q8 0 14 6t6 14v82q0 8 -6 14t-14 6h-61v62zM634 793h-246v-62h246v62zM164 507h-62
q-17 0 -29 -12t-12 -29v-491q0 -17 12 -29t29 -12h818q17 0 29 12t12 29v491q0 17 -12 29t-29 12h-62v-62h21q8 0 14 -6t6 -14v-409q0 -8 -6 -14t-14 -6h-736q-8 0 -14 6t-6 14v409q0 8 6 14t14 6h21v62zM695 803q0 13 9 22t21.5 9t21.5 -9t9 -22v-143q0 -13 -9 -22
t-21.5 -9t-21.5 9t-9 22v143zM266 803q0 13 9 22t21.5 9t21.5 -9t9 -22v-143q0 -13 -9 -22t-21.5 -9t-21.5 9t-9 22v143zM645 200q-19 -59 -48 -107h103v-23h-377v23h248q28 46 50 114zM397 201q19 -35 36 -86l-22 -5q-13 42 -36 84zM501 210q18 -43 29 -92l-22 -5
q-13 50 -29 90zM395 251h232v-21h-232v21zM372 401q-17 -35 -40 -63l-21 13q42 51 61 115l24 -5q-9 -25 -14 -38h124v-22h-71q14 -29 20 -49l-22 -8q-9 28 -22 57h-39zM562 401q-12 -25 -27 -46l-20 14q31 43 46 97l24 -5q-6 -18 -13 -38h135v-22h-77q16 -28 26 -53l-23 -8
q-11 28 -29 61h-42zM519 351q86 -63 195 -99l-12 -21q-113 38 -191 100q-73 -58 -191 -100l-12 22q117 39 195 98h16z" />
    <glyph glyph-name="uniE64A" unicode="&#xe64a;" 
d="M426 474h1q0 46 18 72q21 30 68 30q38 0 59 -21q20 -22 20 -58q0 -25 -20 -51l-11 -13q-65 -58 -78 -86q-14 -26 -14 -67v-12h74v12q0 26 11 46q9 21 29 37q49 43 58 54q26 34 26 85q0 64 -41 100q-41 37 -108 37q-77 0 -120 -45q-42 -42 -44 -115v-2v-3q2 -14 12 -23.5
t24.5 -9.5t24.5 9.5t11 23.5zM510.5 835q-91.5 0 -174.5 -36t-143.5 -96t-96 -143.5t-35.5 -174.5t35.5 -174.5t96 -143.5t143.5 -96t174.5 -36t175 36t143.5 96t95.5 143.5t35.5 174.5t-35.5 174.5t-95.5 143.5t-143.5 96t-175 36zM510.5 -6q-106.5 0 -196.5 52.5
t-142 142.5t-52 196t52 196t142 142.5t196.5 52.5t196.5 -52.5t142.5 -142.5t52.5 -196t-52.5 -196t-142.5 -142.5t-196.5 -52.5zM542 217q15 -13 15 -36q0 -21 -16 -36q-15 -14 -36 -14t-35.5 14.5t-14.5 35.5q0 23 15 36q13 14 35 14q23 0 37 -14z" />
    <glyph glyph-name="uniE64B" unicode="&#xe64b;" 
d="M642 265q12 28 12 58q0 59 -42 101t-101 42q-41 0 -75 -21l-44 44q53 38 119 38q84 0 144 -60t60 -144q0 -66 -38 -119q-3 -6 -7 -10q-9 -9 -21.5 -9t-21.5 9l-44 43q-9 9 -9 21.5t9 22t22 9.5t22 -9zM328 414q-22 -43 -22 -91q0 -85 60 -145t145 -60q57 0 106 30l-45 45
q-29 -13 -61 -13q-60 0 -102 41.5t-42 101.5q0 15 3 29l9 -9q9 -9 22 -9t22 9t9 21.5t-9 21.5l-44 44q-9 9 -21.5 9t-21.5 -9q-7 -7 -8 -16zM919 629h-203l-44 86q-8 15 -25 26t-34 11h-205q-17 0 -34 -11t-25 -26l-42 -86h-205q-17 0 -29 -12t-12 -29v-531q0 -17 12 -29
t29 -12h817q17 0 29 12t12 29v531q0 17 -12 29t-29 12zM899 98q0 -9 -6 -15t-15 -6h-735q-9 0 -15 6t-6 15v449q0 9 6 15t15 6h204l30 61l22 43q4 8 12.5 13t16.5 5h165q9 0 17.5 -5t12.5 -13l21 -43l31 -61h203q9 0 15 -6t6 -15v-449z" />
    <glyph glyph-name="uniE64C" unicode="&#xe64c;" 
d="M919 631h-203l-44 86q-8 15 -25 25.5t-34 10.5h-205q-17 0 -34 -10.5t-25 -25.5l-42 -86h-205q-17 0 -29 -12t-12 -29v-532q0 -16 12 -28t29 -12h817q17 0 29 11.5t12 28.5v532q0 17 -12 29t-29 12zM511 120q-85 0 -145 60t-60 144q0 48 22 91q1 10 8 16q9 9 21.5 9
t21.5 -9l44 -43q9 -9 9 -21.5t-9 -21.5t-22 -9.5t-22 9.5l-9 8q-3 -14 -3 -29q0 -59 42 -101t102 -42q32 0 61 14l45 -45q-49 -30 -106 -30zM677 205q-3 -5 -7 -10q-9 -9 -21.5 -9t-21.5 9l-44 44q-9 9 -9 21.5t9 21.5t22 9t22 -9l15 -15q12 27 12 57q0 59 -42 101t-101 42
q-41 0 -75 -21l-44 45q53 38 119 38q84 0 144 -60t60 -145q0 -65 -38 -119z" />
    <glyph glyph-name="uniE64D" unicode="&#xe64d;" 
d="M835 368h-649q-15 0 -25.5 -10.5t-10.5 -25.5v-360q0 -15 10.5 -25.5t25.5 -10.5h649q15 0 25.5 10.5t10.5 25.5v360q0 15 -10.5 25.5t-25.5 10.5zM475 -10h-253q-7 0 -12.5 5t-5.5 13v288q0 8 5.5 13t12.5 5h253v-324zM817 8q0 -8 -5.5 -13t-12.5 -5h-252v324h252
q7 0 12.5 -5t5.5 -13v-288zM871 620h-178q31 5 54 24q35 29 39 73.5t-25 79t-73.5 38.5t-78.5 -25q-25 -21 -34 -52l-64 -137v-1h-1v1l-63 137q-10 31 -34 52q-35 29 -79.5 25t-73 -38.5t-25 -79t38.5 -73.5q23 -19 55 -24h-179q-15 0 -25.5 -10.5t-10.5 -25.5v-144
q0 -15 10.5 -25.5t25.5 -10.5h721q15 0 25.5 10.5t10.5 25.5v144q0 15 -10.5 25.5t-25.5 10.5zM631 756v2l2 3v-1q5 9 12 16q18 14 40 12t36.5 -19t12.5 -39.5t-19 -36.5q-6 -5 -14 -8l1 -1l-126 -46zM306 693q-17 14 -19 36.5t12.5 39.5t36.5 19t40 -12q7 -7 12 -16v1l2 -3
v-2l55 -118l-126 46l1 1q-8 3 -14 8zM475 458h-289q-7 0 -12.5 5.5t-5.5 12.5v72q0 8 5.5 13t12.5 5h289v-108zM853 476q0 -7 -5.5 -12.5t-12.5 -5.5h-288v108h288q7 0 12.5 -5t5.5 -13v-72z" />
    <glyph glyph-name="uniE64E" unicode="&#xe64e;" 
d="M828 360h-635q-15 0 -25.5 -10.5t-10.5 -25.5v-353q0 -14 10.5 -24.5t25.5 -10.5h635q15 0 25.5 10.5t10.5 24.5v353q0 15 -10.5 25.5t-25.5 10.5zM546 -11q0 -8 -5 -13t-13 -5h-35q-7 0 -12.5 5.5t-5.5 12.5v318q0 7 5.5 12t12.5 5h35q7 0 12.5 -5t5.5 -12v-318z
M864 607h-243l59 16q35 2 63 25q33 28 37 72t-24 77.5t-72 37.5t-77 -25q-25 -20 -34 -50l-62 -134v-2h-1v2l-62 134q-9 30 -34 50q-33 29 -77 25t-72 -37.5t-24 -77.5t37 -72q28 -23 63 -25l59 -16h-243q-14 0 -24.5 -10.5t-10.5 -25.5v-141q0 -14 10.5 -24.5t24.5 -10.5
h707q14 0 24.5 10.5t10.5 24.5v141q0 15 -10.5 25.5t-24.5 10.5zM628 758q1 0 1 1l1 3q5 9 13 15q17 14 38.5 12t36 -18.5t12.5 -38.5t-19 -36q-6 -5 -13 -8v-1l-123 -45zM323 687v1q-7 3 -13 8q-17 14 -18.5 36t12.5 38.5t35.5 18.5t38.5 -12q8 -7 13 -15l1 -3q0 -1 1 -1
l53 -116zM546 448q0 -7 -5 -12.5t-13 -5.5h-35q-7 0 -12.5 5.5t-5.5 12.5v106q0 7 5.5 12.5t12.5 5.5h35q7 0 12.5 -5.5t5.5 -12.5v-106z" />
    <glyph glyph-name="uniE64F" unicode="&#xe64f;" 
d="M122 -58l816 408q1 0 3 1l1 1q19 11 19 33.5t-19 33.5v1l-822 410q-2 1 -3 2l-3 1q-6 2 -13 2q-16 0 -27.5 -11.5t-11.5 -27.5v-1v-821q0 -16 11.5 -27t27.5 -11q12 0 21 6z" />
    <glyph glyph-name="uniE650" unicode="&#xe650;" 
d="M726 620h-431q-97 0 -165.5 -68.5t-68.5 -166t68.5 -166t165.5 -68.5h431q97 0 165.5 68.5t68.5 166t-68.5 166t-165.5 68.5zM726 170h-430q-90 0 -153 63t-63 152.5t63 152.5t153 63h429q90 0 153 -63t63 -152.5t-63 -152.5t-152 -63zM295.5 581q80.5 0 138 -57.5
t57.5 -138.5t-57.5 -138t-138 -57t-138 57t-57.5 138t57.5 138.5t138 57.5z" />
    <glyph glyph-name="uniE651" unicode="&#xe651;" 
d="M226 569h-2h-122q-17 0 -29 -11.5t-12 -28.5v-287q0 -17 12 -28.5t29 -11.5h122h1v-1l300 -194q11 -10 26 -10q17 0 29 12t12 29v6v683v6q0 17 -12 29t-29 12q-13 0 -24 -9zM860 385l92 92q8 9 8 21.5t-8.5 21.5t-21 9t-21.5 -9l-92 -92l-92 92q-9 9 -21 9t-21 -9
t-9 -21.5t9 -21.5l92 -92l-92 -91q-9 -9 -9 -21.5t9 -21.5t21 -9t21 9l92 92l92 -92q9 -9 21.5 -9t21 9t8.5 21.5t-8 21.5z" />
    <glyph glyph-name="uniE652" unicode="&#xe652;" 
d="M120 776h185q12 0 21 9t9 21t-9 20.5t-21 8.5h-215q-12 0 -20.5 -8.5t-8.5 -20.5v-215q0 -12 8.5 -21t20.5 -9t21 9t9 21v185zM902 776h-186q-12 0 -21 9t-9 21t9 20.5t21 8.5h215q12 0 20.5 -8.5t8.5 -20.5v-215q0 -12 -8.5 -21t-20.5 -9t-20.5 9t-8.5 21v185zM120 -5
h185q12 0 21 -9t9 -21t-9 -20.5t-21 -8.5h-215q-12 0 -20.5 8.5t-8.5 20.5v215q0 12 8.5 21t20.5 9t21 -9t9 -21v-185zM902 -5h-186q-12 0 -21 -9t-9 -21t9 -20.5t21 -8.5h215q12 0 20.5 8.5t8.5 20.5v215q0 12 -8.5 21t-20.5 9t-20.5 -9t-8.5 -21v-185z" />
    <glyph glyph-name="uniE653" unicode="&#xe653;" 
d="M745 151h186q12 0 20.5 8.5t8.5 20.5t-8.5 21t-20.5 9h-215q-12 0 -21 -9t-9 -21v-215q0 -12 9 -20.5t21 -8.5t20.5 8.5t8.5 20.5v186zM276 151h-186q-12 0 -20.5 8.5t-8.5 20.5t8.5 21t20.5 9h215q12 0 21 -9t9 -21v-215q0 -12 -9 -20.5t-21 -8.5t-20.5 8.5t-8.5 20.5
v186zM745 620h186q12 0 20.5 -8.5t8.5 -20.5t-8.5 -21t-20.5 -9h-215q-12 0 -21 9t-9 21v215q0 12 9 20.5t21 8.5t20.5 -8.5t8.5 -20.5v-186zM276 620h-186q-12 0 -20.5 -8.5t-8.5 -20.5t8.5 -21t20.5 -9h215q12 0 21 9t9 21v215q0 12 -9 20.5t-21 8.5t-20.5 -8.5
t-8.5 -20.5v-186z" />
    <glyph glyph-name="uniE654" unicode="&#xe654;" 
d="M218 561h-1h-117q-16 0 -27.5 -11t-11.5 -28v-273q0 -17 11.5 -28t27.5 -11h117h1v-1l287 -186q11 -9 25 -9q16 0 27.5 11.5t11.5 27.5v5v655v5q0 16 -11.5 27.5t-27.5 11.5q-13 0 -24 -8zM758 -57v-1q95 83 148.5 198t53.5 245q0 131 -54 246.5t-149 197.5q-8 6 -18 6
q-12 0 -20.5 -8.5t-8.5 -20.5q0 -10 6 -18v-1q2 -1 2 -2q2 -2 4 -3q84 -74 132 -177t48 -219.5t-48 -219.5t-132 -177q-2 -2 -4 -3q0 -1 -2 -2h1q-7 -8 -7 -19q0 -12 8.5 -20.5t20.5 -8.5q11 0 19 7zM714 167v-1q90 92 90 219.5t-90 219.5v-1q-8 6 -18 6q-12 0 -20.5 -8.5
t-8.5 -20.5q0 -10 6 -18l2 -2q70 -74 70 -175.5t-70 -175.5q-1 0 -1 -1l-1 -1q-6 -8 -6 -18q0 -12 8.5 -20.5t20.5 -8.5q10 0 18 6z" />
    <glyph glyph-name="uniE655" unicode="&#xe655;" 
d="M686 776q0 25 17.5 42t41.5 17t41.5 -17t17.5 -42v-781q0 -25 -17.5 -42t-41.5 -17t-41.5 17t-17.5 42v781zM217 776q0 25 17.5 42t41.5 17t41.5 -17t17.5 -42v-781q0 -25 -17.5 -42t-41.5 -17t-41.5 17t-17.5 42v781z" />
    <glyph glyph-name="uniE656" unicode="&#xe656;" 
d="M726 620h-430q-98 0 -166.5 -68.5t-68.5 -166t68.5 -166t166.5 -68.5h430q97 0 165.5 68.5t68.5 166t-68.5 166t-165.5 68.5zM726 170q-89 0 -152 63t-63 152.5t63 152.5t152 63t152 -63t63 -152.5t-63 -152.5t-152 -63z" />
  </font>
</defs>
</svg>
